<svg width="512" height="512.00018" xmlns="http://www.w3.org/2000/svg">

 <g>
  <title>background</title>
  <rect fill="none" id="canvas_background" height="402" width="582" y="-1" x="-1"/>
 </g>
 <g>
  <title>Layer 1</title>
  <path id="svg_1" fill="#697c86" d="m372.23047,242.23438c0,-19.94922 -7.85547,-38.83594 -22.07422,-53.05469c-2.12109,-2.1211 -2.33203,-4.45703 -2.12109,-5.51953c0,-1.27344 0.63672,-3.60547 2.97265,-5.51563l74.48828,-55.8164c2.125,-1.69532 5.09375,-4.2461 8.91407,-8.0625c23.76953,-25.04297 28.4375,-66.63672 0.42578,-94.65235c-28.4375,-28.01562 -75.97656,-26.3125 -100.8086,7.00391l-57.72265,76.82422c-1.69922,2.54687 -4.24219,2.97265 -5.51953,2.97265c-0.84766,0 -3.39454,0 -5.51563,-2.125c-25.67969,-25.67578 -65.36719,-28.85937 -94.44141,-9.54687l4.2461,46.6875l138.79297,138.79297l45.83984,3.39453c8.06641,-12.3086 12.52344,-26.52735 12.52344,-41.38281zm9.76172,-148.55469l-21.22266,-21.22266l21.22266,-21.22265l21.21875,21.22265l-21.21875,21.22266zm0,0"/>
  <path id="svg_2" fill="#465a61" d="m359.70703,283.61719l-45.83984,-3.39453l-69.82032,-69.82032l127.33204,-127.33203l10.61328,10.60938l21.21875,-21.22266l-10.60938,-10.60937l42.23047,-42.23438c28.01563,28.01563 23.34766,69.60938 -0.42578,94.65234c-3.81641,3.82032 -6.78906,6.36719 -8.91016,8.0625l-74.49218,55.81641c-2.33203,1.91016 -2.96875,4.24219 -2.96875,5.51953c-0.21485,1.0625 0,3.39453 2.12109,5.51563c14.21875,14.21875 22.07031,33.10937 22.07422,53.05468c0,14.85547 -4.45703,29.07422 -12.52344,41.38282zm0,0"/>
  <path id="svg_3" fill="#ffd396" d="m243.95703,401.52344l10.70703,-10.70703l84.88282,-84.89844c8.40625,-8.76172 13.96093,-12.96484 20.15234,-22.28906l-94.44141,-94.4375l-94.41797,-94.41016c-9.55859,6.32031 -13.82812,12.03516 -22.28906,20.14844l-42.44922,42.44531l-58.19531,91.875l76.40234,80.89063l47.28125,50.0625l72.36719,42.34765l0,-21.02734zm0,0"/>
  <path id="svg_4" fill="#40a9ff" d="m243.95703,466.98047l0,-44.42969l-42.35156,-42.34765c-17.55469,-17.5586 -17.55859,-46.10547 0,-63.66016l21.21875,-21.22266c5.84766,-5.85937 5.84766,-15.37109 0,-21.23437c-5.65625,-5.65625 -15.51953,-5.65625 -21.21875,0l-21.21875,21.23437c-8.98828,8.96485 -21.49609,13.0586 -33.8125,12.55469c-11,-0.45313 -21.85156,-4.54688 -29.86328,-12.57031c-17.55078,-17.55078 -17.60938,-46.03125 0.01562,-63.65625l21.21875,-21.22266c5.89063,-5.91797 5.84375,-15.39062 0,-21.20312l-31.84375,-31.84766l-106.10156,106.10156l95.48438,95.48828l58.47265,58.42969l0,49.58594c0.00391,24.82422 20.15625,45.01953 44.98047,45.01953s45.01953,-20.19531 45.01953,-45.01953zm0,0"/>
  <path id="svg_5" fill="#ffb64c" d="m243.95703,422.55078l0,-21.02344l10.70703,-10.71093l84.88282,-84.89453c8.40625,-8.76563 13.96093,-12.96875 20.15234,-22.29297l-94.44141,-94.4375l-140.94922,140.94922l47.28125,50.0625l72.36719,42.34765zm0,0"/>
  <path id="svg_6" fill="#1890ff" d="m153.95703,466.98047c0.00391,24.82422 20.15625,45.01953 44.98047,45.01953s45.01953,-20.19531 45.01953,-45.01953l0,-44.42969l-42.35156,-42.34765c-17.55859,-17.5586 -17.55859,-46.10547 0,-63.66016l21.21875,-21.22266c5.84766,-5.85937 5.84766,-15.37109 0,-21.23437c-5.65625,-5.65625 -15.51953,-5.65625 -21.21875,0l-21.22266,21.23437c-8.98437,8.96485 -21.49218,13.0586 -33.80859,12.55469l-51.08984,51.08984l58.47265,58.42969l0,49.58594zm0,0"/>
 </g>
</svg>