<svg height="512pt" viewBox="-29 0 512 512.00018" width="512pt" xmlns="http://www.w3.org/2000/svg"><path d="m372.230469 242.234375c0-19.949219-7.855469-38.835937-22.074219-53.054687-2.121094-2.121094-2.332031-4.457032-2.121094-5.519532 0-1.273437.636719-3.605468 2.972656-5.515625l74.488282-55.816406c2.125-1.695313 5.09375-4.246094 8.914062-8.0625 23.769532-25.042969 28.4375-66.636719.425782-94.652344-28.4375-28.015625-75.976563-26.3125-100.808594 7.003907l-57.722656 76.824218c-1.699219 2.546875-4.242188 2.972656-5.519532 2.972656-.847656 0-3.394531 0-5.515625-2.125-25.679687-25.675781-65.367187-28.859374-94.441406-9.546874l4.246094 46.6875 138.792969 138.792968 45.839843 3.394532c8.066407-12.308594 12.523438-26.527344 12.523438-41.382813zm9.761719-148.554687-21.222657-21.222657 21.222657-21.222656 21.21875 21.222656zm0 0" fill="#697c86"/><path d="m359.707031 283.617188-45.839843-3.394532-69.820313-69.820312 127.332031-127.332032 10.613282 10.609376 21.21875-21.222657-10.609376-10.609375 42.230469-42.234375c28.015625 28.015625 23.347657 69.609375-.425781 94.652344-3.816406 3.820313-6.789062 6.367187-8.910156 8.0625l-74.492188 55.816406c-2.332031 1.910157-2.96875 4.242188-2.96875 5.519531-.214844 1.0625 0 3.394532 2.121094 5.515626 14.21875 14.21875 22.070312 33.109374 22.074219 53.054687 0 14.855469-4.457031 29.074219-12.523438 41.382813zm0 0" fill="#465a61"/><path d="m243.957031 401.523438 10.707031-10.707032 84.882813-84.898437c8.40625-8.761719 13.960937-12.964844 20.152344-22.289063l-94.441407-94.4375-94.417968-94.410156c-9.558594 6.320312-13.828125 12.035156-22.289063 20.148438l-42.449219 42.445312-58.195312 91.875 76.402344 80.890625 47.28125 50.0625 72.367187 42.347656zm0 0" fill="#ffd396"/><path d="m243.957031 466.980469v-44.429688l-42.351562-42.347656c-17.554688-17.558594-17.558594-46.105469 0-63.660156l21.21875-21.222657c5.847656-5.859374 5.847656-15.371093 0-21.234374-5.65625-5.65625-15.519531-5.65625-21.21875 0l-21.21875 21.234374c-8.988281 8.964844-21.496094 13.058594-33.8125 12.554688-11-.453125-21.851563-4.546875-29.863281-12.570312-17.550782-17.550782-17.609376-46.03125.015624-63.65625l21.21875-21.222657c5.890626-5.917969 5.84375-15.390625 0-21.203125l-31.84375-31.847656-106.101562 106.101562 95.484375 95.488282 58.472656 58.429687v49.585938c.003907 24.824219 20.15625 45.019531 44.980469 45.019531s45.019531-20.195312 45.019531-45.019531zm0 0" fill="#c8ec4b"/><path d="m243.957031 422.550781v-21.023437l10.707031-10.710938 84.882813-84.894531c8.40625-8.765625 13.960937-12.96875 20.152344-22.292969l-94.441407-94.4375-140.949218 140.949219 47.28125 50.0625zm0 0" fill="#ffb64c"/><path d="m153.957031 466.980469c.003907 24.824219 20.15625 45.019531 44.980469 45.019531s45.019531-20.195312 45.019531-45.019531v-44.429688l-42.351562-42.347656c-17.558594-17.558594-17.558594-46.105469 0-63.660156l21.21875-21.222657c5.847656-5.859374 5.847656-15.371093 0-21.234374-5.65625-5.65625-15.519531-5.65625-21.21875 0l-21.222657 21.234374c-8.984374 8.964844-21.492187 13.058594-33.808593 12.554688l-51.089844 51.089844 58.472656 58.429687zm0 0" fill="#a8d32a"/></svg>